<svg xmlns="http://www.w3.org/2000/svg" viewBox="0 0 165.35 165.35" xmlns:xlink="http://www.w3.org/1999/xlink" width="165.35" height="165.35"><defs><style>.cls-1{fill:#1d88bc;}.cls-2{fill:#0046ab;}.cls-3,.cls-4{fill:#fff;}.cls-3{stroke:#fff;stroke-miterlimit:10;stroke-width:0.75px;}.cls-5{fill:#c82e13;}.cls-6{fill:#f2f2f2;}</style></defs><title>KRIS 1</title><g id="Layer_2" data-name="Layer 2"><g id="Layer_1-2" data-name="Layer 1"><circle class="cls-1" cx="82.68" cy="82.68" r="82.68"/><g id="_Group_" data-name="&lt;Group&gt;"><g id="_Group_2" data-name="&lt;Group&gt;"><path class="cls-2" d="M34.55,124.9a.65.65,0,0,1-.51-.25c-2.34-3-10.19-13.67-13-25.75C18,85.94,20.44,71,21,68.08a.65.65,0,0,1,.29-.43c4-2.52,25.09-15.34,48.24-20.67,13.57-3.12,27.87-3.78,37.48-3.78,1.76,0,3.54,0,5.3.06,5.8.14,10.12.48,12.18.66a.65.65,0,0,1,.4.19c1.78,1.77,10.81,11.22,13.69,23.44,3,12.9.59,28.53-.23,33a.65.65,0,0,1-.64.53h0l-2.61,0c-8,0-28.79.49-48.68,5.08-23.65,5.44-47.09,16.5-51.55,18.66A.65.65,0,0,1,34.55,124.9Z"/><path class="cls-3" d="M107,43.86c1.87,0,3.64,0,5.28.06,6.23.15,10.72.53,12.13.66,1.83,1.82,10.68,11.1,13.52,23.13,3,12.72.56,28.43-.23,32.75l-2.62,0c-8.21,0-28.92.51-48.83,5.09C62.68,111,39.62,121.79,34.55,124.25c-2.36-3-10.11-13.59-12.92-25.5-3-12.8-.59-27.49,0-30.55C25.1,66,46.4,53,69.65,47.62c13-3,26.77-3.76,37.34-3.76m0-1.3a169.31,169.31,0,0,0-37.63,3.8C46.1,51.71,24.92,64.58,20.92,67.1a1.3,1.3,0,0,0-.59.87c-.53,2.89-3,18,0,31.08,2.88,12.2,10.8,23,13.16,26a1.3,1.3,0,0,0,1.59.37c4.45-2.16,27.82-13.18,51.41-18.61,19.83-4.57,40.55-5.06,48.54-5.06l2.6,0h0A1.3,1.3,0,0,0,139,100.7c.83-4.52,3.29-20.26.22-33.28-2.92-12.4-12.06-22-13.87-23.76a1.3,1.3,0,0,0-.8-.37c-2.07-.19-6.4-.52-12.22-.66-1.77,0-3.55-.06-5.32-.06Z"/></g><path id="_Path_" data-name="&lt;Path&gt;" class="cls-4" d="M132.32,69.68c.72,5.19-3.8,8.62-7.49,10.78-10.41,6.1-22.64,10.22-35.4,13.64-8.41,2.25-17.59,4.51-26.56,6.06a103.58,103.58,0,0,1-14.68,1.52c-5,.15-10.78,0-14.5-2.12,10.12,2.78,23.85.77,33.81-1.25,8-1.64,16.39-3.77,24.05-5.83,11.71-3.15,22.88-6.85,32.49-12.53,3.44-2,7.48-4.79,8.09-9a10.26,10.26,0,0,0,0-1.72.27.27,0,0,1,0-.09,6.14,6.14,0,0,0-.52-1.05c-.06-.11-.1-.23-.17-.35C125.92,59.42,103.1,49.11,70.21,59,35.7,70.41,26.13,85,27.43,93.14a7.67,7.67,0,0,0,1.78,4.17c4.49,5.36,18.47,8.42,54.24-1.16,19.75-4.76,33.42-10.26,41.39-15.24C130.75,77.22,133.24,73.21,132.32,69.68Z"/><path id="_Path_2" data-name="&lt;Path&gt;" class="cls-5" d="M65.8,88.77a1.8,1.8,0,0,1,0,.33,2.83,2.83,0,0,1-.21.67,3.26,3.26,0,0,1-1,1.24,4.48,4.48,0,0,1-5.76,0c-5-4.32-6-6-5.84-3.17q.17,2.45.32,4.91A4.62,4.62,0,0,1,52.89,95a3,3,0,0,1-1.46,1.25l-4.7,2.3Q46,87.41,45.32,76.3c2.21-1.08,4.43-2.13,6.62-3.13.5,7,.31,8.3,1.33,6.32,1.45-2.82,2.86-5.61,4.18-8.31l.08-.12A2.82,2.82,0,0,1,59,69.9a2.72,2.72,0,0,1,1-.16h.15l.14,0,.3.05a4.19,4.19,0,0,1,.64.21,3.16,3.16,0,0,1,1.25.94,2.77,2.77,0,0,1,.43,2.91c-.39,1-3.94,7.77-4,7.81,1.85,1.52,3.76,3,5.78,4.53a3.13,3.13,0,0,1,1.11,2.2c0,.05,0,.11,0,.16Z"/><path id="_Path_3" data-name="&lt;Path&gt;" class="cls-5" d="M86.71,84.39l-3.22.82c-1.87.49-2.37-1.85-2.65-2.63-.66-1.88-1.41-3.85-4-3.15l-2.52.71-.48.13c-.6.16-.25,1-.23,1.06.37,1.6.73,3.2,1.1,4.81.45,2-.93,1.76-6.33,3.57-1.18-6.2-2.45-12.39-3.54-18.6C64.41,68.48,67,68,68,67.71c2.56-.82,5.21-1.46,7.83-2.11,3.38-.84,7,.44,8.16,4.19.64,2.06.32,4.45-1.61,5.73,1.94.22,3.59,1.81,4.6,4.23C87.36,80.74,89.22,83.77,86.71,84.39Z"/><path id="_Path_4" data-name="&lt;Path&gt;" class="cls-5" d="M91.07,83.35q-2.83-8.77-5.67-17.53c-.89-2.75,5-4.35,5.9-2q2.88,7.88,5.77,15.76C98.21,82.7,95.28,82.41,91.07,83.35Z"/><path id="_Path_5" data-name="&lt;Path&gt;" class="cls-5" d="M110.07,80.35c-2.27.28-8.66.72-11.62-3.62-1.53-2.25,1.52-2.2,5.76-2.82a4.45,4.45,0,0,0,.77,1.22c1,1.08,2.56,1.1,3.82.93s2.66-.68,2-2.08c-.43-.95-1.53-1.15-5.64-1.57-3.78-.39-7.94-.57-9.42-4.47-1.68-4.49,1.5-7,5.62-7.52,3.69-.44,7.62.42,10.21,3.45,2,2.38-2.71,2.19-4.85,2.44a2.14,2.14,0,0,0-1.44-1.42,4.23,4.23,0,0,0-2.09-.25c-.87.11-2.18.51-1.73,1.58.65,1.32,3.85,1.28,7.12,1.64s6.92,1.36,8.68,4.81C119.76,77.51,115.14,79.61,110.07,80.35Z"/><path id="_Path_6" data-name="&lt;Path&gt;" class="cls-4" d="M44.64,72A93.55,93.55,0,0,1,63.1,62.51a86.85,86.85,0,0,1,27.76-6.73c10.07-.68,19.83.51,27.34,3.75a25.89,25.89,0,0,1,9.48,6.6,44.27,44.27,0,0,0-11.6-6.4,66.14,66.14,0,0,0-22.85-3c-11.89.43-21.77,3.48-30.75,7S45,71.87,38.23,77.39A44.91,44.91,0,0,1,44.64,72Z"/><g id="_Group_3" data-name="&lt;Group&gt;"><g id="_Group_4" data-name="&lt;Group&gt;"><g id="_Group_5" data-name="&lt;Group&gt;"><g id="_Group_6" data-name="&lt;Group&gt;"><path class="cls-6" d="M131.39,78.79a.11.11,0,0,1,.07-.13l.75-.21a.66.66,0,0,1,.88.44.62.62,0,0,1-.3.74l.71.78,0,0a.1.1,0,0,1-.07.12.12.12,0,0,1-.08,0l-.8-.86-.66.19.26.92a.1.1,0,0,1-.07.13.1.1,0,0,1-.13-.07Zm.91-.17-.69.19.26.91.68-.19a.45.45,0,0,0,.35-.59A.46.46,0,0,0,132.3,78.62Z"/><path class="cls-6" d="M132.07,81.08a.22.22,0,0,1-.21-.16l-.59-2.09a.23.23,0,0,1,.14-.28l.77-.21a.78.78,0,0,1,1,.53.73.73,0,0,1-.24.79l.67.75v0a.22.22,0,0,1-.17.26.24.24,0,0,1-.17,0l0,0-.75-.8-.47.13.23.8a.23.23,0,0,1-.15.28Zm-.31-2.18.19.67.56-.16a.33.33,0,0,0,.27-.44.34.34,0,0,0-.44-.24h0Z"/></g></g></g><g id="_Group_7" data-name="&lt;Group&gt;"><g id="_Group_8" data-name="&lt;Group&gt;"><path class="cls-6" d="M132.3,81.63a2,2,0,0,1-1.88-1.45,1.94,1.94,0,0,1,.18-1.51,2,2,0,0,1,1.2-.93,2,2,0,0,1,.59-.07,2,2,0,0,1,.49,3.89A2.35,2.35,0,0,1,132.3,81.63Zm.1-3.85a2.21,2.21,0,0,0-.56.07,1.87,1.87,0,0,0-1.13.88,1.81,1.81,0,0,0-.17,1.41,1.87,1.87,0,0,0,1.76,1.36,1.93,1.93,0,0,0,.55-.07,1.86,1.86,0,0,0,1.3-2.29A1.88,1.88,0,0,0,132.39,77.78Z"/><path class="cls-6" d="M132.31,81.75h0a2.11,2.11,0,0,1-2-1.54,2.07,2.07,0,0,1,.19-1.6,2.11,2.11,0,0,1,1.28-1,2.07,2.07,0,0,1,.63-.08,2.11,2.11,0,0,1,2,1.54,2.07,2.07,0,0,1-.18,1.59,2.11,2.11,0,0,1-1.29,1A2.49,2.49,0,0,1,132.31,81.75Zm.06-3.85a2.08,2.08,0,0,0-.51.07,1.74,1.74,0,0,0-1.05.82,1.68,1.68,0,0,0-.16,1.32,1.74,1.74,0,0,0,1.65,1.27,1.76,1.76,0,0,0,.52-.06,1.73,1.73,0,0,0,1.06-.82,1.71,1.71,0,0,0,.16-1.31,1.76,1.76,0,0,0-1.65-1.27Z"/></g></g></g><path id="_Path_7" data-name="&lt;Path&gt;" class="cls-4" d="M74.37,71.13l-1.12.31-1.41.39c-.47.14-.31.29.11,2.09.06.28.13.56.19.84s.14.6.21.91c.11.47.69.17,1.73-.12l1.65-.46c1.18-.32,2.74-.94,2.26-2.75C77.64,71.06,76.73,70.49,74.37,71.13Z"/></g></g></g></svg>